<svg xmlns="http://www.w3.org/2000/svg" viewBox="0 0 1024 1024" width="1024" height="1024">
  <!-- Blue circle -->
  <circle cx="512" cy="490" r="419" fill="#1096d4"/>

  <!-- White stylized B -->
  <path fill="#ffffff" d="
    M345 208
    H538
    C650 208 706 270 706 350
    C706 425 655 466 586 466
    H462
    V500
    H566
    C668 500 721 558 721 636
    C721 726 656 781 560 781
    H345
    C338 781 332 775 332 768
    V221
    C332 214 338 208 345 208
    Z

    M417 270
    V719
    H462
    V402
    H531
    C590 402 621 375 621 320
    C621 268 586 238 526 238
    H417
    Z
  "/>
</svg>
